<mxfile host="app.diagrams.net" modified="2022-09-27T12:27:14.591Z" agent="5.0 (Macintosh; Intel Mac OS X 10_15_7) AppleWebKit/537.36 (KHTML, like Gecko) Chrome/105.0.0.0 Safari/537.36" etag="PYQUFPnthWNh2MUQNJSi" version="20.3.2" type="github">
  <diagram id="12-v_-Ps5oeWohAapK6f" name="Page-1">
    <mxGraphModel dx="1554" dy="888" grid="1" gridSize="10" guides="1" tooltips="1" connect="1" arrows="1" fold="1" page="1" pageScale="1" pageWidth="850" pageHeight="1100" math="0" shadow="0">
      <root>
        <mxCell id="0" />
        <mxCell id="1" parent="0" />
        <mxCell id="sopNn36Yz9ptfTBNqcj7-85" value="" style="verticalLabelPosition=bottom;verticalAlign=top;html=1;shape=mxgraph.basic.rect;fillColor2=none;strokeWidth=1;size=20;indent=5;" vertex="1" parent="1">
          <mxGeometry x="120" y="40" width="600" height="920" as="geometry" />
        </mxCell>
        <mxCell id="sopNn36Yz9ptfTBNqcj7-93" value="" style="verticalLabelPosition=bottom;verticalAlign=top;html=1;shape=mxgraph.basic.rect;fillColor2=none;strokeWidth=1;size=20;indent=5;" vertex="1" parent="1">
          <mxGeometry x="200" y="580" width="440" height="330" as="geometry" />
        </mxCell>
        <mxCell id="sopNn36Yz9ptfTBNqcj7-91" value="" style="verticalLabelPosition=bottom;verticalAlign=top;html=1;shape=mxgraph.basic.rect;fillColor2=none;strokeWidth=1;size=20;indent=5;" vertex="1" parent="1">
          <mxGeometry x="200" y="330" width="440" height="236" as="geometry" />
        </mxCell>
        <mxCell id="sopNn36Yz9ptfTBNqcj7-87" value="" style="verticalLabelPosition=bottom;verticalAlign=top;html=1;shape=mxgraph.basic.rect;fillColor2=none;strokeWidth=1;size=20;indent=5;" vertex="1" parent="1">
          <mxGeometry x="200" y="70" width="440" height="240" as="geometry" />
        </mxCell>
        <mxCell id="sopNn36Yz9ptfTBNqcj7-1" value="Users" style="shape=umlActor;verticalLabelPosition=bottom;verticalAlign=top;html=1;outlineConnect=0;" vertex="1" parent="1">
          <mxGeometry x="70" y="320" width="30" height="60" as="geometry" />
        </mxCell>
        <mxCell id="sopNn36Yz9ptfTBNqcj7-6" value="Applications" style="shape=umlActor;verticalLabelPosition=bottom;verticalAlign=top;html=1;outlineConnect=0;" vertex="1" parent="1">
          <mxGeometry x="780" y="300" width="30" height="60" as="geometry" />
        </mxCell>
        <mxCell id="sopNn36Yz9ptfTBNqcj7-8" value="Input the &lt;br&gt;restaurant name in the search box" style="ellipse;whiteSpace=wrap;html=1;" vertex="1" parent="1">
          <mxGeometry x="220" y="110" width="140" height="70" as="geometry" />
        </mxCell>
        <mxCell id="sopNn36Yz9ptfTBNqcj7-9" value="Looking for the result" style="ellipse;whiteSpace=wrap;html=1;" vertex="1" parent="1">
          <mxGeometry x="450" y="120" width="140" height="70" as="geometry" />
        </mxCell>
        <mxCell id="sopNn36Yz9ptfTBNqcj7-10" value="Return and update the result&amp;nbsp;&amp;nbsp;for users to view" style="ellipse;whiteSpace=wrap;html=1;" vertex="1" parent="1">
          <mxGeometry x="450" y="230" width="140" height="70" as="geometry" />
        </mxCell>
        <mxCell id="sopNn36Yz9ptfTBNqcj7-11" value="View menu" style="ellipse;whiteSpace=wrap;html=1;" vertex="1" parent="1">
          <mxGeometry x="270" y="460" width="140" height="50" as="geometry" />
        </mxCell>
        <mxCell id="sopNn36Yz9ptfTBNqcj7-12" value="View items" style="ellipse;whiteSpace=wrap;html=1;" vertex="1" parent="1">
          <mxGeometry x="260" y="630" width="140" height="70" as="geometry" />
        </mxCell>
        <mxCell id="sopNn36Yz9ptfTBNqcj7-13" value="Select items for calculators" style="ellipse;whiteSpace=wrap;html=1;" vertex="1" parent="1">
          <mxGeometry x="270" y="750" width="140" height="60" as="geometry" />
        </mxCell>
        <mxCell id="sopNn36Yz9ptfTBNqcj7-36" value="Update items for the respective restaurant" style="ellipse;whiteSpace=wrap;html=1;" vertex="1" parent="1">
          <mxGeometry x="450" y="480" width="140" height="70" as="geometry" />
        </mxCell>
        <mxCell id="sopNn36Yz9ptfTBNqcj7-37" value="Calculate&lt;br&gt;the result" style="ellipse;whiteSpace=wrap;html=1;" vertex="1" parent="1">
          <mxGeometry x="450" y="660" width="140" height="60" as="geometry" />
        </mxCell>
        <mxCell id="sopNn36Yz9ptfTBNqcj7-41" value="&amp;lt;&amp;lt;extended&amp;gt;&amp;gt;" style="html=1;verticalAlign=bottom;labelBackgroundColor=none;endArrow=open;endFill=0;dashed=1;rounded=0;exitX=0.5;exitY=0;exitDx=0;exitDy=0;" edge="1" parent="1" source="sopNn36Yz9ptfTBNqcj7-13" target="sopNn36Yz9ptfTBNqcj7-12">
          <mxGeometry x="-0.3333" y="40" width="160" relative="1" as="geometry">
            <mxPoint x="270" y="700" as="sourcePoint" />
            <mxPoint x="430" y="700" as="targetPoint" />
            <mxPoint as="offset" />
          </mxGeometry>
        </mxCell>
        <mxCell id="sopNn36Yz9ptfTBNqcj7-46" value="Check the result" style="ellipse;whiteSpace=wrap;html=1;" vertex="1" parent="1">
          <mxGeometry x="270" y="370" width="140" height="50" as="geometry" />
        </mxCell>
        <mxCell id="sopNn36Yz9ptfTBNqcj7-48" value="&amp;lt;&amp;lt;extend&amp;gt;&amp;gt;" style="html=1;verticalAlign=bottom;labelBackgroundColor=none;endArrow=open;endFill=0;dashed=1;rounded=0;exitX=0.5;exitY=1;exitDx=0;exitDy=0;entryX=0.5;entryY=0;entryDx=0;entryDy=0;" edge="1" parent="1" source="sopNn36Yz9ptfTBNqcj7-46" target="sopNn36Yz9ptfTBNqcj7-11">
          <mxGeometry x="0.3333" y="-40" width="160" relative="1" as="geometry">
            <mxPoint x="290" y="420" as="sourcePoint" />
            <mxPoint x="340" y="440" as="targetPoint" />
            <mxPoint as="offset" />
          </mxGeometry>
        </mxCell>
        <mxCell id="sopNn36Yz9ptfTBNqcj7-51" value="" style="endArrow=none;startArrow=none;endFill=0;startFill=0;endSize=8;html=1;verticalAlign=bottom;labelBackgroundColor=none;strokeWidth=3;rounded=0;entryX=0;entryY=0.5;entryDx=0;entryDy=0;" edge="1" parent="1" target="sopNn36Yz9ptfTBNqcj7-8">
          <mxGeometry width="160" relative="1" as="geometry">
            <mxPoint x="100" y="360" as="sourcePoint" />
            <mxPoint x="260" y="360" as="targetPoint" />
          </mxGeometry>
        </mxCell>
        <mxCell id="sopNn36Yz9ptfTBNqcj7-52" value="" style="endArrow=none;startArrow=none;endFill=0;startFill=0;endSize=8;html=1;verticalAlign=bottom;labelBackgroundColor=none;strokeWidth=3;rounded=0;exitX=1;exitY=0.5;exitDx=0;exitDy=0;" edge="1" parent="1" source="sopNn36Yz9ptfTBNqcj7-9">
          <mxGeometry width="160" relative="1" as="geometry">
            <mxPoint x="590" y="360" as="sourcePoint" />
            <mxPoint x="750" y="360" as="targetPoint" />
          </mxGeometry>
        </mxCell>
        <mxCell id="sopNn36Yz9ptfTBNqcj7-53" value="" style="endArrow=none;startArrow=none;endFill=0;startFill=0;endSize=8;html=1;verticalAlign=bottom;labelBackgroundColor=none;strokeWidth=3;rounded=0;entryX=0;entryY=0.5;entryDx=0;entryDy=0;" edge="1" parent="1" target="sopNn36Yz9ptfTBNqcj7-46">
          <mxGeometry width="160" relative="1" as="geometry">
            <mxPoint x="100" y="360" as="sourcePoint" />
            <mxPoint x="260" y="360" as="targetPoint" />
          </mxGeometry>
        </mxCell>
        <mxCell id="sopNn36Yz9ptfTBNqcj7-54" value="" style="endArrow=none;startArrow=none;endFill=0;startFill=0;endSize=8;html=1;verticalAlign=bottom;labelBackgroundColor=none;strokeWidth=3;rounded=0;entryX=0;entryY=0.5;entryDx=0;entryDy=0;" edge="1" parent="1" target="sopNn36Yz9ptfTBNqcj7-11">
          <mxGeometry width="160" relative="1" as="geometry">
            <mxPoint x="100" y="360" as="sourcePoint" />
            <mxPoint x="220" y="385" as="targetPoint" />
          </mxGeometry>
        </mxCell>
        <mxCell id="sopNn36Yz9ptfTBNqcj7-55" value="" style="endArrow=none;startArrow=none;endFill=0;startFill=0;endSize=8;html=1;verticalAlign=bottom;labelBackgroundColor=none;strokeWidth=3;rounded=0;exitX=1;exitY=0.5;exitDx=0;exitDy=0;" edge="1" parent="1" source="sopNn36Yz9ptfTBNqcj7-10">
          <mxGeometry width="160" relative="1" as="geometry">
            <mxPoint x="590" y="385" as="sourcePoint" />
            <mxPoint x="750" y="360" as="targetPoint" />
          </mxGeometry>
        </mxCell>
        <mxCell id="sopNn36Yz9ptfTBNqcj7-56" value="" style="endArrow=none;startArrow=none;endFill=0;startFill=0;endSize=8;html=1;verticalAlign=bottom;labelBackgroundColor=none;strokeWidth=3;rounded=0;exitX=1;exitY=0.5;exitDx=0;exitDy=0;" edge="1" parent="1" source="sopNn36Yz9ptfTBNqcj7-36">
          <mxGeometry width="160" relative="1" as="geometry">
            <mxPoint x="580" y="442.25" as="sourcePoint" />
            <mxPoint x="750" y="360" as="targetPoint" />
          </mxGeometry>
        </mxCell>
        <mxCell id="sopNn36Yz9ptfTBNqcj7-57" value="" style="endArrow=none;startArrow=none;endFill=0;startFill=0;endSize=8;html=1;verticalAlign=bottom;labelBackgroundColor=none;strokeWidth=3;rounded=0;entryX=0;entryY=0.5;entryDx=0;entryDy=0;" edge="1" parent="1" target="sopNn36Yz9ptfTBNqcj7-12">
          <mxGeometry width="160" relative="1" as="geometry">
            <mxPoint x="100" y="360" as="sourcePoint" />
            <mxPoint x="330" y="485" as="targetPoint" />
          </mxGeometry>
        </mxCell>
        <mxCell id="sopNn36Yz9ptfTBNqcj7-58" value="" style="endArrow=none;startArrow=none;endFill=0;startFill=0;endSize=8;html=1;verticalAlign=bottom;labelBackgroundColor=none;strokeWidth=3;rounded=0;entryX=0;entryY=0.5;entryDx=0;entryDy=0;" edge="1" parent="1" target="sopNn36Yz9ptfTBNqcj7-13">
          <mxGeometry width="160" relative="1" as="geometry">
            <mxPoint x="100" y="360" as="sourcePoint" />
            <mxPoint x="330" y="755" as="targetPoint" />
            <Array as="points">
              <mxPoint x="180" y="720" />
            </Array>
          </mxGeometry>
        </mxCell>
        <mxCell id="sopNn36Yz9ptfTBNqcj7-59" value="" style="endArrow=none;startArrow=none;endFill=0;startFill=0;endSize=8;html=1;verticalAlign=bottom;labelBackgroundColor=none;strokeWidth=3;rounded=0;exitX=1;exitY=0.5;exitDx=0;exitDy=0;" edge="1" parent="1" source="sopNn36Yz9ptfTBNqcj7-37">
          <mxGeometry width="160" relative="1" as="geometry">
            <mxPoint x="470" y="912.5" as="sourcePoint" />
            <mxPoint x="750" y="360" as="targetPoint" />
            <Array as="points" />
          </mxGeometry>
        </mxCell>
        <mxCell id="sopNn36Yz9ptfTBNqcj7-61" value="&amp;lt;&amp;lt;include&amp;gt;&amp;gt;" style="html=1;verticalAlign=bottom;labelBackgroundColor=none;endArrow=open;endFill=0;dashed=1;rounded=0;entryX=0.5;entryY=1;entryDx=0;entryDy=0;exitX=0.5;exitY=0;exitDx=0;exitDy=0;" edge="1" parent="1" source="sopNn36Yz9ptfTBNqcj7-10" target="sopNn36Yz9ptfTBNqcj7-9">
          <mxGeometry x="-0.5" y="-30" width="160" relative="1" as="geometry">
            <mxPoint x="470" y="300" as="sourcePoint" />
            <mxPoint x="500" y="200" as="targetPoint" />
            <Array as="points" />
            <mxPoint as="offset" />
          </mxGeometry>
        </mxCell>
        <mxCell id="sopNn36Yz9ptfTBNqcj7-63" value="Looking for the menu items and their prices in accordance with the searching restaurant" style="ellipse;whiteSpace=wrap;html=1;" vertex="1" parent="1">
          <mxGeometry x="435" y="370" width="170" height="90" as="geometry" />
        </mxCell>
        <mxCell id="sopNn36Yz9ptfTBNqcj7-64" value="&amp;lt;&amp;lt;include&amp;gt;&amp;gt;" style="html=1;verticalAlign=bottom;labelBackgroundColor=none;endArrow=open;endFill=0;dashed=1;rounded=0;entryX=0.5;entryY=1;entryDx=0;entryDy=0;exitX=0.5;exitY=0;exitDx=0;exitDy=0;" edge="1" parent="1" source="sopNn36Yz9ptfTBNqcj7-36" target="sopNn36Yz9ptfTBNqcj7-63">
          <mxGeometry x="-0.3333" y="-40" width="160" relative="1" as="geometry">
            <mxPoint x="520" y="710" as="sourcePoint" />
            <mxPoint x="680" y="710" as="targetPoint" />
            <mxPoint as="offset" />
          </mxGeometry>
        </mxCell>
        <mxCell id="sopNn36Yz9ptfTBNqcj7-65" value="" style="endArrow=none;startArrow=none;endFill=0;startFill=0;endSize=8;html=1;verticalAlign=bottom;labelBackgroundColor=none;strokeWidth=3;rounded=0;exitX=1;exitY=0.5;exitDx=0;exitDy=0;" edge="1" parent="1" source="sopNn36Yz9ptfTBNqcj7-63">
          <mxGeometry width="160" relative="1" as="geometry">
            <mxPoint x="520" y="590" as="sourcePoint" />
            <mxPoint x="750" y="360" as="targetPoint" />
          </mxGeometry>
        </mxCell>
        <mxCell id="sopNn36Yz9ptfTBNqcj7-69" value="View the result" style="ellipse;whiteSpace=wrap;html=1;" vertex="1" parent="1">
          <mxGeometry x="270" y="830" width="140" height="60" as="geometry" />
        </mxCell>
        <mxCell id="sopNn36Yz9ptfTBNqcj7-70" value="Update&lt;br&gt;the result" style="ellipse;whiteSpace=wrap;html=1;" vertex="1" parent="1">
          <mxGeometry x="450" y="770" width="140" height="60" as="geometry" />
        </mxCell>
        <mxCell id="sopNn36Yz9ptfTBNqcj7-71" value="" style="endArrow=none;startArrow=none;endFill=0;startFill=0;endSize=8;html=1;verticalAlign=bottom;labelBackgroundColor=none;strokeWidth=3;rounded=0;entryX=0;entryY=0.5;entryDx=0;entryDy=0;" edge="1" parent="1" target="sopNn36Yz9ptfTBNqcj7-69">
          <mxGeometry width="160" relative="1" as="geometry">
            <mxPoint x="100" y="359.5" as="sourcePoint" />
            <mxPoint x="260" y="359.5" as="targetPoint" />
            <Array as="points">
              <mxPoint x="110" y="750" />
            </Array>
          </mxGeometry>
        </mxCell>
        <mxCell id="sopNn36Yz9ptfTBNqcj7-73" value="&amp;lt;&amp;lt;include&amp;gt;&amp;gt;" style="html=1;verticalAlign=bottom;labelBackgroundColor=none;endArrow=open;endFill=0;dashed=1;rounded=0;entryX=0.5;entryY=1;entryDx=0;entryDy=0;" edge="1" parent="1" source="sopNn36Yz9ptfTBNqcj7-70" target="sopNn36Yz9ptfTBNqcj7-37">
          <mxGeometry x="-0.3333" y="-40" width="160" relative="1" as="geometry">
            <mxPoint x="530" y="720" as="sourcePoint" />
            <mxPoint x="530" y="690" as="targetPoint" />
            <mxPoint as="offset" />
          </mxGeometry>
        </mxCell>
        <mxCell id="sopNn36Yz9ptfTBNqcj7-74" value="" style="endArrow=none;startArrow=none;endFill=0;startFill=0;endSize=8;html=1;verticalAlign=bottom;labelBackgroundColor=none;strokeWidth=3;rounded=0;exitX=1;exitY=0.5;exitDx=0;exitDy=0;" edge="1" parent="1" source="sopNn36Yz9ptfTBNqcj7-70">
          <mxGeometry width="160" relative="1" as="geometry">
            <mxPoint x="700" y="900" as="sourcePoint" />
            <mxPoint x="750" y="360" as="targetPoint" />
            <Array as="points" />
          </mxGeometry>
        </mxCell>
        <mxCell id="sopNn36Yz9ptfTBNqcj7-78" value="Invalid Search Result" style="ellipse;whiteSpace=wrap;html=1;" vertex="1" parent="1">
          <mxGeometry x="315" y="210" width="110" height="60" as="geometry" />
        </mxCell>
        <mxCell id="sopNn36Yz9ptfTBNqcj7-80" value="&amp;lt;&amp;lt;extend&amp;gt;&amp;gt;" style="html=1;verticalAlign=bottom;labelBackgroundColor=none;endArrow=open;endFill=0;dashed=1;rounded=0;entryX=0;entryY=1;entryDx=0;entryDy=0;exitX=0.5;exitY=0;exitDx=0;exitDy=0;" edge="1" parent="1" source="sopNn36Yz9ptfTBNqcj7-78" target="sopNn36Yz9ptfTBNqcj7-9">
          <mxGeometry x="-0.1603" y="8" width="160" relative="1" as="geometry">
            <mxPoint x="620" y="180" as="sourcePoint" />
            <mxPoint x="460" y="190" as="targetPoint" />
            <mxPoint as="offset" />
          </mxGeometry>
        </mxCell>
        <mxCell id="sopNn36Yz9ptfTBNqcj7-88" value="Search Functionality" style="text;strokeColor=none;fillColor=none;align=left;verticalAlign=top;spacingLeft=4;spacingRight=4;overflow=hidden;rotatable=0;points=[[0,0.5],[1,0.5]];portConstraint=eastwest;fontStyle=1;fontSize=15;" vertex="1" parent="1">
          <mxGeometry x="332.5" y="70" width="175" height="26" as="geometry" />
        </mxCell>
        <mxCell id="sopNn36Yz9ptfTBNqcj7-90" value="Search Result Display" style="text;strokeColor=none;fillColor=none;align=left;verticalAlign=top;spacingLeft=4;spacingRight=4;overflow=hidden;rotatable=0;points=[[0,0.5],[1,0.5]];portConstraint=eastwest;fontStyle=1;fontSize=15;" vertex="1" parent="1">
          <mxGeometry x="340" y="330" width="180" height="26" as="geometry" />
        </mxCell>
        <mxCell id="sopNn36Yz9ptfTBNqcj7-94" value="Calculator" style="text;strokeColor=none;fillColor=none;align=left;verticalAlign=top;spacingLeft=4;spacingRight=4;overflow=hidden;rotatable=0;points=[[0,0.5],[1,0.5]];portConstraint=eastwest;fontStyle=1;fontSize=15;" vertex="1" parent="1">
          <mxGeometry x="377.5" y="580" width="85" height="26" as="geometry" />
        </mxCell>
      </root>
    </mxGraphModel>
  </diagram>
</mxfile>
